<svg width="32" height="32" viewBox="0 0 32 32" fill="none" xmlns="http://www.w3.org/2000/svg">
<rect width="32" height="32" fill="black" style="fill:black;fill-opacity:1;"/>
<path d="M26.5371 15.7235C26.5371 18.4515 26.0201 20.7285 24.9861 22.5545C23.9741 24.3805 22.5441 25.7445 20.6961 26.6465C18.8481 27.5485 16.6701 27.9995 14.1621 27.9995H6.53906V4.4375H14.6901C17.2201 4.4375 19.3651 4.8775 21.1251 5.7575C22.8851 6.6155 24.2271 7.8805 25.1511 9.5525C26.0751 11.2245 26.5371 13.2815 26.5371 15.7235ZM19.9371 15.9545C19.9371 14.5245 19.7391 13.3365 19.3431 12.3905C18.9691 11.4445 18.3971 10.7405 17.6271 10.2785C16.8791 9.8165 15.9221 9.5855 14.7561 9.5855H12.9081V22.7855H14.3271C16.2631 22.7855 17.6821 22.2245 18.5841 21.1025C19.4861 19.9805 19.9371 18.2645 19.9371 15.9545Z" fill="white" style="fill:white;fill-opacity:1;"/>
</svg>
