<svg width="16" height="16" viewBox="0 0 16 16" fill="none" xmlns="http://www.w3.org/2000/svg">
<rect width="16" height="16" fill="black" style="fill:black;fill-opacity:1;"/>
<path d="M13.6106 7.67338C13.6106 9.07871 13.3443 10.2517 12.8116 11.1924C12.2903 12.133 11.5536 12.8357 10.6016 13.3004C9.64959 13.765 8.52759 13.9974 7.23559 13.9974H3.30859V1.85938H7.50759C8.81093 1.85938 9.91593 2.08604 10.8226 2.53938C11.7293 2.98138 12.4206 3.63304 12.8966 4.49438C13.3726 5.35571 13.6106 6.41538 13.6106 7.67338ZM10.2106 7.79238C10.2106 7.05571 10.1086 6.44371 9.90459 5.95638C9.71193 5.46904 9.41726 5.10638 9.02059 4.86838C8.63526 4.63038 8.14226 4.51138 7.54159 4.51138H6.58959V11.3114H7.32059C8.31793 11.3114 9.04893 11.0224 9.51359 10.4444C9.97826 9.86638 10.2106 8.98238 10.2106 7.79238Z" fill="white" style="fill:white;fill-opacity:1;"/>
</svg>
